<?xml version="1.0" encoding="UTF-8"?>
<svg xmlns="http://www.w3.org/2000/svg" xmlns:xlink="http://www.w3.org/1999/xlink" width="68px" height="65px" viewBox="0 0 68 65" version="1.1">
<g id="surface1">
<path style=" stroke:none;fill-rule:nonzero;fill:rgb(46.27451%,29.019609%,73.725492%);fill-opacity:1;" d="M 47.117188 45.214844 C 49.625 44.953125 51.53125 42.785156 51.441406 40.179688 C 51.355469 37.578125 49.195312 35.496094 46.597656 35.496094 L 46.425781 35.496094 C 43.742188 35.582031 41.664062 37.839844 41.75 40.527344 C 41.839844 41.832031 42.355469 42.957031 43.136719 43.738281 C 40.195312 49.554688 35.695312 53.804688 28.945312 57.363281 C 24.359375 59.792969 19.597656 60.660156 14.839844 60.054688 C 10.945312 59.535156 7.917969 57.796875 6.011719 54.933594 C 3.246094 50.683594 2.984375 46.082031 5.320312 41.484375 C 6.964844 38.183594 9.5625 35.753906 11.207031 34.539062 C 10.859375 33.414062 10.339844 31.503906 10.082031 30.113281 C -2.464844 39.226562 -1.167969 51.550781 2.640625 57.363281 C 5.496094 61.703125 11.292969 64.394531 17.695312 64.394531 C 19.425781 64.394531 21.15625 64.21875 22.886719 63.785156 C 33.964844 61.617188 42.359375 55.019531 47.117188 45.214844 Z M 62.347656 34.453125 C 55.769531 26.730469 46.078125 22.480469 35.003906 22.480469 L 33.617188 22.480469 C 32.839844 20.917969 31.195312 19.875 29.378906 19.875 L 29.203125 19.875 C 26.523438 19.960938 24.445312 22.21875 24.53125 24.910156 C 24.617188 27.511719 26.78125 29.59375 29.378906 29.59375 L 29.550781 29.59375 C 31.453125 29.507812 33.097656 28.292969 33.789062 26.644531 L 35.347656 26.644531 C 41.925781 26.644531 48.15625 28.554688 53.78125 32.285156 C 58.105469 35.148438 61.222656 38.878906 62.953125 43.390625 C 64.421875 47.035156 64.335938 50.59375 62.777344 53.632812 C 60.355469 58.230469 56.289062 60.75 50.925781 60.75 C 47.464844 60.75 44.175781 59.707031 42.445312 58.925781 C 41.492188 59.792969 39.761719 61.183594 38.550781 62.050781 C 42.269531 63.785156 46.078125 64.738281 49.710938 64.738281 C 58.019531 64.738281 64.164062 60.140625 66.5 55.542969 C 69.007812 50.507812 68.835938 41.832031 62.347656 34.453125 Z M 18.386719 46.691406 C 18.472656 49.292969 20.636719 51.375 23.234375 51.375 L 23.40625 51.375 C 26.089844 51.289062 28.167969 49.03125 28.078125 46.34375 C 27.992188 43.738281 25.828125 41.65625 23.234375 41.65625 L 23.0625 41.65625 C 22.886719 41.65625 22.628906 41.65625 22.457031 41.742188 C 18.90625 35.84375 17.4375 29.421875 17.957031 22.476562 C 18.300781 17.273438 20.03125 12.757812 23.0625 9.027344 C 25.570312 5.816406 30.414062 4.253906 33.703125 4.167969 C 42.875 3.996094 46.769531 15.449219 47.03125 20.046875 C 48.15625 20.308594 50.058594 20.917969 51.355469 21.351562 C 50.320312 7.292969 41.664062 0.00390625 33.359375 0.00390625 C 25.570312 0.00390625 18.386719 5.644531 15.53125 13.972656 C 11.550781 25.082031 14.148438 35.753906 18.992188 44.171875 C 18.5625 44.78125 18.300781 45.734375 18.386719 46.691406 Z M 18.386719 46.691406 "/>
</g>
</svg>
